<svg xmlns="http://www.w3.org/2000/svg" version="1.1" width="1024" height="1024">
	<path fill="#FFF" d="M904 332.571q0 57.714-40.857 98.571t-98.571 40.857-98.571-40.857-40.857-98.571 40.857-98.571 98.571-40.857 98.571 40.857 40.857 98.571zM464 756.571q0-59.429-41.714-101.143t-101.143-41.714q-15.429 0-30.857 3.429l59.429 24q44 17.714 62.571 60.857t0.857 86.571q-17.714 44-61.143 62.286t-86.857 0.571q-12-4.571-35.429-14t-34.857-14q18.286 34.286 52 55.143t74.286 20.857q59.429 0 101.143-41.714t41.714-101.143zM938.286 333.143q0-72-51.143-123.143t-123.143-51.143q-72.571 0-123.714 51.143t-51.143 123.143q0 72.571 51.143 123.429t123.714 50.857q72 0 123.143-50.857t51.143-123.429zM1024 333.143q0 108-76.286 184t-183.714 76l-249.714 182.286q-6.857 73.714-62.286 124.571t-130.857 50.857q-69.143 0-122.286-43.429t-67.429-109.714l-131.429-52.571v-245.143l222.286 89.714q45.143-27.429 98.857-27.429 7.429 0 20 1.143l162.286-232.571q1.143-106.857 77.429-182.286t183.143-75.429q107.429 0 183.714 76.286t76.286 183.714z"></path>
</svg>